{
   "accessors" : [
      {
         "bufferView" : 0,
         "componentType" : 5123,
         "count" : 5928,
         "max" : [ 5927 ],
         "min" : [ 0 ],
         "name" : "buffer-0-accessor-indices-buffer-0-mesh-0",
         "type" : "SCALAR"
      },
      {
         "bufferView" : 2,
         "componentType" : 5126,
         "count" : 5928,
         "max" : [ 77.9541015625, 6.509500026702881, 53.32559967041016 ],
         "min" : [ 0, -0.3528000116348267, 0 ],
         "name" : "buffer-0-accessor-position-buffer-0-mesh-0",
         "type" : "VEC3"
      },
      {
         "bufferView" : 2,
         "byteOffset" : 71136,
         "componentType" : 5126,
         "count" : 5928,
         "max" : [ 0.9995999932289124, 0.9965000152587891, 0.9988999962806702 ],
         "min" : [ -0.9961000084877014, -1, -0.9980000257492065 ],
         "name" : "buffer-0-accessor-normal-buffer-0-mesh-0",
         "type" : "VEC3"
      },
      {
         "bufferView" : 1,
         "componentType" : 5126,
         "count" : 5928,
         "max" : [ 1.029600024223328, 0 ],
         "min" : [ 0, -1 ],
         "name" : "buffer-0-accessor-texcoord-buffer-0-mesh-0",
         "type" : "VEC2"
      },
      {
         "bufferView" : 3,
         "componentType" : 5126,
         "count" : 0,
         "max" : [ 0, 0, 0, 0 ],
         "min" : [ 0, 0, 0, 0 ],
         "name" : "buffer-0-accessor-color-buffer-0-mesh-0",
         "type" : "VEC4"
      },
      {
         "bufferView" : 0,
         "byteOffset" : 11856,
         "componentType" : 5123,
         "count" : 65535,
         "max" : [ 65534 ],
         "min" : [ 0 ],
         "name" : "buffer-0-accessor-indices-buffer-0-mesh-0",
         "type" : "SCALAR"
      },
      {
         "bufferView" : 2,
         "byteOffset" : 142272,
         "componentType" : 5126,
         "count" : 65535,
         "max" : [ 78.25650024414062, 15.46329975128174, 51.70880126953125 ],
         "min" : [ 0, 0, 0 ],
         "name" : "buffer-0-accessor-position-buffer-0-mesh-0",
         "type" : "VEC3"
      },
      {
         "bufferView" : 2,
         "byteOffset" : 928692,
         "componentType" : 5126,
         "count" : 65535,
         "max" : [ 1, 1, 1.001000046730042 ],
         "min" : [ -1.003700017929077, -1, -1.002599954605103 ],
         "name" : "buffer-0-accessor-normal-buffer-0-mesh-0",
         "type" : "VEC3"
      },
      {
         "bufferView" : 1,
         "byteOffset" : 47424,
         "componentType" : 5126,
         "count" : 65535,
         "max" : [ 1, 0 ],
         "min" : [ 0, -3 ],
         "name" : "buffer-0-accessor-texcoord-buffer-0-mesh-0",
         "type" : "VEC2"
      },
      {
         "bufferView" : 3,
         "componentType" : 5126,
         "count" : 0,
         "max" : [ 0, 0, 0, 0 ],
         "min" : [ 0, 0, 0, 0 ],
         "name" : "buffer-0-accessor-color-buffer-0-mesh-0",
         "type" : "VEC4"
      },
      {
         "bufferView" : 0,
         "byteOffset" : 142926,
         "componentType" : 5123,
         "count" : 65535,
         "max" : [ 65534 ],
         "min" : [ 0 ],
         "name" : "buffer-0-accessor-indices-buffer-0-mesh-1",
         "type" : "SCALAR"
      },
      {
         "bufferView" : 2,
         "byteOffset" : 1715112,
         "componentType" : 5126,
         "count" : 65535,
         "max" : [ 75.73739624023438, 16.16760063171387, 53.30319976806641 ],
         "min" : [ 0, 0, 0 ],
         "name" : "buffer-0-accessor-position-buffer-0-mesh-1",
         "type" : "VEC3"
      },
      {
         "bufferView" : 2,
         "byteOffset" : 2501532,
         "componentType" : 5126,
         "count" : 65535,
         "max" : [ 1.042199969291687, 1, 1 ],
         "min" : [ -1.04009997844696, -1, -1 ],
         "name" : "buffer-0-accessor-normal-buffer-0-mesh-1",
         "type" : "VEC3"
      },
      {
         "bufferView" : 1,
         "byteOffset" : 571704,
         "componentType" : 5126,
         "count" : 65535,
         "max" : [ 1, 0 ],
         "min" : [ 0, -3 ],
         "name" : "buffer-0-accessor-texcoord-buffer-0-mesh-1",
         "type" : "VEC2"
      },
      {
         "bufferView" : 3,
         "componentType" : 5126,
         "count" : 0,
         "max" : [ 0, 0, 0, 0 ],
         "min" : [ 0, 0, 0, 0 ],
         "name" : "buffer-0-accessor-color-buffer-0-mesh-1",
         "type" : "VEC4"
      },
      {
         "bufferView" : 0,
         "byteOffset" : 273996,
         "componentType" : 5123,
         "count" : 65535,
         "max" : [ 65534 ],
         "min" : [ 0 ],
         "name" : "buffer-0-accessor-indices-buffer-0-mesh-2",
         "type" : "SCALAR"
      },
      {
         "bufferView" : 2,
         "byteOffset" : 3287952,
         "componentType" : 5126,
         "count" : 65535,
         "max" : [ 77.17230224609375, 15.78800010681152, 51.13219833374023 ],
         "min" : [ 0, 0, 0 ],
         "name" : "buffer-0-accessor-position-buffer-0-mesh-2",
         "type" : "VEC3"
      },
      {
         "bufferView" : 2,
         "byteOffset" : 4074372,
         "componentType" : 5126,
         "count" : 65535,
         "max" : [ 1.006800055503845, 1, 1.003499984741211 ],
         "min" : [ -1.006800055503845, -1, -1.003499984741211 ],
         "name" : "buffer-0-accessor-normal-buffer-0-mesh-2",
         "type" : "VEC3"
      },
      {
         "bufferView" : 1,
         "byteOffset" : 1095984,
         "componentType" : 5126,
         "count" : 65535,
         "max" : [ 1, 0 ],
         "min" : [ 0, -2 ],
         "name" : "buffer-0-accessor-texcoord-buffer-0-mesh-2",
         "type" : "VEC2"
      },
      {
         "bufferView" : 3,
         "componentType" : 5126,
         "count" : 0,
         "max" : [ 0, 0, 0, 0 ],
         "min" : [ 0, 0, 0, 0 ],
         "name" : "buffer-0-accessor-color-buffer-0-mesh-2",
         "type" : "VEC4"
      },
      {
         "bufferView" : 0,
         "byteOffset" : 405066,
         "componentType" : 5123,
         "count" : 65535,
         "max" : [ 65534 ],
         "min" : [ 0 ],
         "name" : "buffer-0-accessor-indices-buffer-0-mesh-3",
         "type" : "SCALAR"
      },
      {
         "bufferView" : 2,
         "byteOffset" : 4860792,
         "componentType" : 5126,
         "count" : 65535,
         "max" : [ 76.99980163574219, 14.37419986724854, 54.91460037231445 ],
         "min" : [ 0, 0, 0 ],
         "name" : "buffer-0-accessor-position-buffer-0-mesh-3",
         "type" : "VEC3"
      },
      {
         "bufferView" : 2,
         "byteOffset" : 5647212,
         "componentType" : 5126,
         "count" : 65535,
         "max" : [ 0.9994000196456909, 1, 1.005300045013428 ],
         "min" : [ -1.006399989128113, -1, -1.032400012016296 ],
         "name" : "buffer-0-accessor-normal-buffer-0-mesh-3",
         "type" : "VEC3"
      },
      {
         "bufferView" : 1,
         "byteOffset" : 1620264,
         "componentType" : 5126,
         "count" : 65535,
         "max" : [ 1, 0 ],
         "min" : [ 0, -3 ],
         "name" : "buffer-0-accessor-texcoord-buffer-0-mesh-3",
         "type" : "VEC2"
      },
      {
         "bufferView" : 3,
         "componentType" : 5126,
         "count" : 0,
         "max" : [ 0, 0, 0, 0 ],
         "min" : [ 0, 0, 0, 0 ],
         "name" : "buffer-0-accessor-color-buffer-0-mesh-3",
         "type" : "VEC4"
      },
      {
         "bufferView" : 0,
         "byteOffset" : 536136,
         "componentType" : 5123,
         "count" : 65535,
         "max" : [ 65534 ],
         "min" : [ 0 ],
         "name" : "buffer-0-accessor-indices-buffer-0-mesh-4",
         "type" : "SCALAR"
      },
      {
         "bufferView" : 2,
         "byteOffset" : 6433632,
         "componentType" : 5126,
         "count" : 65535,
         "max" : [ 78.42250061035156, 14.10840034484863, 55.14009857177734 ],
         "min" : [ 0, 0, 0 ],
         "name" : "buffer-0-accessor-position-buffer-0-mesh-4",
         "type" : "VEC3"
      },
      {
         "bufferView" : 2,
         "byteOffset" : 7220052,
         "componentType" : 5126,
         "count" : 65535,
         "max" : [ 1.071499943733215, 1, 1.155699968338013 ],
         "min" : [ -1.057199954986572, -1, -1.142799973487854 ],
         "name" : "buffer-0-accessor-normal-buffer-0-mesh-4",
         "type" : "VEC3"
      },
      {
         "bufferView" : 1,
         "byteOffset" : 2144544,
         "componentType" : 5126,
         "count" : 65535,
         "max" : [ 1, 0 ],
         "min" : [ 0, -3 ],
         "name" : "buffer-0-accessor-texcoord-buffer-0-mesh-4",
         "type" : "VEC2"
      },
      {
         "bufferView" : 3,
         "componentType" : 5126,
         "count" : 0,
         "max" : [ 0, 0, 0, 0 ],
         "min" : [ 0, 0, 0, 0 ],
         "name" : "buffer-0-accessor-color-buffer-0-mesh-4",
         "type" : "VEC4"
      },
      {
         "bufferView" : 0,
         "byteOffset" : 667206,
         "componentType" : 5123,
         "count" : 65535,
         "max" : [ 65534 ],
         "min" : [ 0 ],
         "name" : "buffer-0-accessor-indices-buffer-0-mesh-5",
         "type" : "SCALAR"
      },
      {
         "bufferView" : 2,
         "byteOffset" : 8006472,
         "componentType" : 5126,
         "count" : 65535,
         "max" : [ 78.25229644775391, 16.03319931030273, 53.30070114135742 ],
         "min" : [ 0, 0, 0 ],
         "name" : "buffer-0-accessor-position-buffer-0-mesh-5",
         "type" : "VEC3"
      },
      {
         "bufferView" : 2,
         "byteOffset" : 8792892,
         "componentType" : 5126,
         "count" : 65535,
         "max" : [ 1.003700017929077, 0.2180999964475632, 1.002599954605103 ],
         "min" : [ -1.042199969291687, -0.5559999942779541, -1.000800013542175 ],
         "name" : "buffer-0-accessor-normal-buffer-0-mesh-5",
         "type" : "VEC3"
      },
      {
         "bufferView" : 1,
         "byteOffset" : 2668824,
         "componentType" : 5126,
         "count" : 65535,
         "max" : [ 0.833299994468689, 0 ],
         "min" : [ 0, -3 ],
         "name" : "buffer-0-accessor-texcoord-buffer-0-mesh-5",
         "type" : "VEC2"
      },
      {
         "bufferView" : 3,
         "componentType" : 5126,
         "count" : 0,
         "max" : [ 0, 0, 0, 0 ],
         "min" : [ 0, 0, 0, 0 ],
         "name" : "buffer-0-accessor-color-buffer-0-mesh-5",
         "type" : "VEC4"
      },
      {
         "bufferView" : 0,
         "byteOffset" : 798276,
         "componentType" : 5123,
         "count" : 53478,
         "max" : [ 53477 ],
         "min" : [ 0 ],
         "name" : "buffer-0-accessor-indices-buffer-0-mesh-6",
         "type" : "SCALAR"
      },
      {
         "bufferView" : 2,
         "byteOffset" : 9579312,
         "componentType" : 5126,
         "count" : 53478,
         "max" : [ 78.42079925537109, 14.2632999420166, 55.13859939575195 ],
         "min" : [ 0, 0, 0 ],
         "name" : "buffer-0-accessor-position-buffer-0-mesh-6",
         "type" : "VEC3"
      },
      {
         "bufferView" : 2,
         "byteOffset" : 10221048,
         "componentType" : 5126,
         "count" : 53478,
         "max" : [ 1.057199954986572, 0.2720000147819519, 1.142799973487854 ],
         "min" : [ -1.071499943733215, -0.6128000020980835, -1.155699968338013 ],
         "name" : "buffer-0-accessor-normal-buffer-0-mesh-6",
         "type" : "VEC3"
      },
      {
         "bufferView" : 1,
         "byteOffset" : 3193104,
         "componentType" : 5126,
         "count" : 53478,
         "max" : [ 0.833299994468689, 0 ],
         "min" : [ 0, -3 ],
         "name" : "buffer-0-accessor-texcoord-buffer-0-mesh-6",
         "type" : "VEC2"
      },
      {
         "bufferView" : 3,
         "componentType" : 5126,
         "count" : 0,
         "max" : [ 0, 0, 0, 0 ],
         "min" : [ 0, 0, 0, 0 ],
         "name" : "buffer-0-accessor-color-buffer-0-mesh-6",
         "type" : "VEC4"
      }
   ],
   "asset" : {
      "extras" : {
         "GOOGLE_processor_version" : 294144208
      },
      "generator" : "Obj2GltfConverter",
      "version" : "2.0"
   },
   "bufferViews" : [
      {
         "buffer" : 0,
         "byteLength" : 905232,
         "byteStride" : 0,
         "name" : "buffer-0-bufferview-ushort",
         "target" : 34963
      },
      {
         "buffer" : 0,
         "byteLength" : 3620928,
         "byteOffset" : 905232,
         "byteStride" : 8,
         "name" : "buffer-0-bufferview-vec2",
         "target" : 34962
      },
      {
         "buffer" : 0,
         "byteLength" : 10862784,
         "byteOffset" : 4526160,
         "byteStride" : 12,
         "name" : "buffer-0-bufferview-vec3",
         "target" : 34962
      },
      {
         "buffer" : 0,
         "byteLength" : 1,
         "name" : "buffer-0-bufferview-vec4"
      }
   ],
   "buffers" : [
      {
         "byteLength" : 15388944,
         "name" : "buffer-0",
         "uri" : "Anemone.bin"
      }
   ],
   "cameras" : [
      {
         "perspective" : {
            "yfov" : 0.7853981633974483,
            "znear" : 0.1000000014901161
         },
         "type" : "perspective"
      }
   ],
   "extensions" : {
      "KHR_lights_punctual" : {
         "lights" : [
            {
               "color" : [ 1, 0.9333333333333333, 0.8666666666666667 ],
               "intensity" : 0.25,
               "name" : "headLight",
               "type" : "directional"
            },
            {
               "color" : [ 1, 0.9333333333333333, 0.8666666666666667 ],
               "intensity" : 0.324999988079071,
               "name" : "keyLight",
               "type" : "directional"
            }
         ]
      }
   },
   "extensionsUsed" : [ "GOOGLE_backgrounds", "GOOGLE_camera_settings", "KHR_lights_punctual" ],
   "extras" : {
      "GOOGLE_initial_camera_motion" : {
         "motionPath" : "FULL_ROTATION"
      },
      "GOOGLE_lighting_rig" : {
         "disableShadows" : false
      }
   },
   "materials" : [
      {
         "doubleSided" : true,
         "name" : "02___Default",
         "pbrMetallicRoughness" : {
            "baseColorFactor" : [ 0.7412, 0.0392, 1, 1 ],
            "metallicFactor" : 0,
            "roughnessFactor" : 0.9699476628648295
         }
      },
      {
         "doubleSided" : true,
         "name" : "01___Default",
         "pbrMetallicRoughness" : {
            "baseColorFactor" : [ 0, 1, 0.0706, 1 ],
            "metallicFactor" : 0,
            "roughnessFactor" : 0.9699476628648295
         }
      }
   ],
   "meshes" : [
      {
         "name" : "buffer-0-mesh-0",
         "primitives" : [
            {
               "attributes" : {
                  "NORMAL" : 2,
                  "POSITION" : 1,
                  "TEXCOORD_0" : 3
               },
               "indices" : 0,
               "material" : 0
            },
            {
               "attributes" : {
                  "NORMAL" : 7,
                  "POSITION" : 6,
                  "TEXCOORD_0" : 8
               },
               "indices" : 5,
               "material" : 1
            },
            {
               "attributes" : {
                  "NORMAL" : 12,
                  "POSITION" : 11,
                  "TEXCOORD_0" : 13
               },
               "indices" : 10,
               "material" : 1
            },
            {
               "attributes" : {
                  "NORMAL" : 17,
                  "POSITION" : 16,
                  "TEXCOORD_0" : 18
               },
               "indices" : 15,
               "material" : 1
            },
            {
               "attributes" : {
                  "NORMAL" : 22,
                  "POSITION" : 21,
                  "TEXCOORD_0" : 23
               },
               "indices" : 20,
               "material" : 1
            },
            {
               "attributes" : {
                  "NORMAL" : 27,
                  "POSITION" : 26,
                  "TEXCOORD_0" : 28
               },
               "indices" : 25,
               "material" : 1
            },
            {
               "attributes" : {
                  "NORMAL" : 32,
                  "POSITION" : 31,
                  "TEXCOORD_0" : 33
               },
               "indices" : 30,
               "material" : 1
            },
            {
               "attributes" : {
                  "NORMAL" : 37,
                  "POSITION" : 36,
                  "TEXCOORD_0" : 38
               },
               "indices" : 35,
               "material" : 1
            }
         ]
      }
   ],
   "nodes" : [
      {
         "mesh" : 0,
         "name" : "node-0"
      },
      {
         "children" : [ 2 ]
      },
      {
         "children" : [ 3 ],
         "extras" : {
            "isTransformNode" : 1
         },
         "translation" : [ 70.52026931145237, 7.975924583196586, 46.2567320677101 ]
      },
      {
         "children" : [ 0 ],
         "translation" : [ -70.52026931145237, -7.975924583196586, -46.2567320677101 ]
      },
      {
         "camera" : 0,
         "children" : [ 5 ],
         "rotation" : [
            -0.221924054279278,
            -0.251895031853816,
            -0.05946428056213499,
            0.9400864887853888
         ],
         "translation" : [ 51.91188713935207, 26.57639682135781, 78.49713706932639 ]
      },
      {
         "extensions" : {
            "KHR_lights_punctual" : {
               "light" : 0
            }
         },
         "extras" : {
            "isHeadLight" : 1
         },
         "name" : "headLightNode",
         "translation" : [ -11.78044547396542, 5.890222736982712, 5.890222736982712 ]
      },
      {
         "extensions" : {
            "KHR_lights_punctual" : {
               "light" : 1
            }
         },
         "extras" : {
            "isKeyLight" : 1
         },
         "name" : "keyLightNode",
         "rotation" : [ -0.7505326882858236, -0.3752663441429118, 0, 0.5439447166468927 ],
         "scale" : [ 0, 0, 11.89824992870508 ],
         "translation" : [ 58.65263235920929, 33.09628731749424, 34.44959171944548 ]
      }
   ],
   "scene" : 0,
   "scenes" : [
      {
         "extensions" : {
            "GOOGLE_backgrounds" : {
               "color" : [ 0.01176470588235294, 0.6627450980392157, 0.9568627450980393 ]
            },
            "GOOGLE_camera_settings" : {}
         },
         "extras" : {
            "GOOGLE_camera_index" : {
               "cameraIndex" : 0,
               "nodeIndex" : 4
            },
            "GOOGLE_geometry_data" : {
               "stats" : {
                  "centroid" : [ 70.55088228791436, 9.299787460084087, 46.34784164815056 ],
                  "radius" : 11.78044547396542,
                  "stdev" : 5.381389455810578
               },
               "visualCenterPoint" : [ 70.52026931145237, 7.975924583196586, 46.2567320677101 ]
            },
            "GOOGLE_hemi_light" : {
               "groundColor" : [ 0.01176470588235294, 0.6627450980392157, 0.9568627450980393 ]
            }
         },
         "name" : "scene-0",
         "nodes" : [ 1, 4, 6 ]
      }
   ]
}
