{
   "accessors" : [
      {
         "bufferView" : 2,
         "byteOffset" : 0,
         "componentType" : 5126,
         "count" : 1564,
         "max" : [ 1, 0.835527777671814, 0.7226724624633789, 1 ],
         "min" : [ 0.05637409910559654, 0.1011451631784439, 0.03994716703891754, 1 ],
         "name" : "accessor_color_m0-PolyPaper16_-133640",
         "type" : "VEC4"
      },
      {
         "bufferView" : 0,
         "byteOffset" : 0,
         "componentType" : 5123,
         "count" : 1638,
         "max" : [ 1563 ],
         "min" : [ 0 ],
         "name" : "accessor_indices_0_m0-PolyPaper16_-133640",
         "type" : "SCALAR"
      },
      {
         "bufferView" : 1,
         "byteOffset" : 18768,
         "componentType" : 5126,
         "count" : 1564,
         "max" : [ 0.9995586, 0.9583272, 0.9820534 ],
         "min" : [ -0.9554698, -0.9908734, -0.9888263 ],
         "name" : "accessor_normal_m0-PolyPaper16_-133640",
         "type" : "VEC3"
      },
      {
         "bufferView" : 1,
         "byteOffset" : 0,
         "componentType" : 5126,
         "count" : 1564,
         "max" : [ 0.8525736, 2.043115, 0.3527679 ],
         "min" : [ -0.3610461, 1.640204, -0.04072332 ],
         "name" : "accessor_position_m0-PolyPaper16_-133640",
         "type" : "VEC3"
      }
   ],
   "asset" : {
      "copyright" : "Unknown",
      "extras" : {
         "GOOGLE_processor_version" : 294144208
      },
      "generator" : "glTF 1-to-2 Upgrader for Google Blocks",
      "version" : "2.0"
   },
   "bufferViews" : [
      {
         "buffer" : 0,
         "byteLength" : 3276,
         "byteOffset" : 0,
         "name" : "ushortBufferView",
         "target" : 34963
      },
      {
         "buffer" : 0,
         "byteLength" : 37536,
         "byteOffset" : 3276,
         "byteStride" : 12,
         "name" : "vec3BufferView",
         "target" : 34962
      },
      {
         "buffer" : 0,
         "byteLength" : 25024,
         "byteOffset" : 40812,
         "byteStride" : 16,
         "name" : "vec4BufferView",
         "target" : 34962
      }
   ],
   "buffers" : [
      {
         "byteLength" : 65836,
         "name" : "model",
         "uri" : "model.bin"
      }
   ],
   "cameras" : [
      {
         "perspective" : {
            "yfov" : 0.7853981633974483,
            "znear" : 0.1000000014901161
         },
         "type" : "perspective"
      }
   ],
   "extensions" : {
      "KHR_lights_punctual" : {
         "lights" : [
            {
               "color" : [ 1, 0.9333333333333333, 0.8666666666666667 ],
               "intensity" : 0.25,
               "name" : "headLight",
               "type" : "directional"
            },
            {
               "color" : [ 1, 0.9333333333333333, 0.8666666666666667 ],
               "intensity" : 0.324999988079071,
               "name" : "keyLight",
               "type" : "directional"
            }
         ]
      }
   },
   "extensionsUsed" : [ "GOOGLE_backgrounds", "GOOGLE_camera_settings", "KHR_lights_punctual" ],
   "extras" : {
      "GOOGLE_initial_camera_motion" : {
         "motionPath" : "FULL_ROTATION"
      },
      "GOOGLE_lighting_rig" : {
         "disableShadows" : false
      }
   },
   "materials" : [
      {
         "alphaMode" : "OPAQUE",
         "doubleSided" : false,
         "name" : "BlocksPaper",
         "pbrMetallicRoughness" : {
            "baseColorFactor" : [ 1, 1, 1, 1 ],
            "metallicFactor" : 0,
            "roughnessFactor" : 0.6
         }
      },
      {
         "alphaMode" : "BLEND",
         "doubleSided" : false,
         "name" : "BlocksGlass",
         "pbrMetallicRoughness" : {
            "baseColorFactor" : [ 0.2, 0.2, 1, 0.3 ],
            "metallicFactor" : 1,
            "roughnessFactor" : 0.4
         }
      },
      {
         "alphaMode" : "OPAQUE",
         "doubleSided" : true,
         "name" : "BlocksGem",
         "pbrMetallicRoughness" : {
            "baseColorFactor" : [ 1, 0.4, 1, 1 ],
            "metallicFactor" : 0,
            "roughnessFactor" : 0.1
         }
      }
   ],
   "meshes" : [
      {
         "name" : "mesh_m0-PolyPaper16_-133640",
         "primitives" : [
            {
               "attributes" : {
                  "COLOR_0" : 0,
                  "NORMAL" : 2,
                  "POSITION" : 3
               },
               "indices" : 1,
               "material" : 0,
               "mode" : 4
            }
         ]
      }
   ],
   "nodes" : [
      {
         "mesh" : 0,
         "name" : "node_MeshObject181587968-PolyPaper16"
      },
      {
         "children" : [ 2 ]
      },
      {
         "children" : [ 3 ],
         "extras" : {
            "isTransformNode" : 1
         },
         "translation" : [ 0.2490589567141389, 1.790065544797598, 0.1433513664410365 ]
      },
      {
         "children" : [ 0 ],
         "translation" : [ -0.2490589567141389, -1.790065544797598, -0.1433513664410365 ]
      },
      {
         "camera" : 0,
         "children" : [ 5 ],
         "rotation" : [
            -0.01174448555961326,
            -0.2010484779803684,
            -0.002410609345762576,
            0.9795079200921756
         ],
         "translation" : [ -0.6200273455245622, 1.835574075818466, 2.212575255796316 ]
      },
      {
         "extensions" : {
            "KHR_lights_punctual" : {
               "light" : 0
            }
         },
         "extras" : {
            "isHeadLight" : 1
         },
         "name" : "headLightNode",
         "translation" : [ -0.6949702473161239, 0.3474851236580619, 0.3474851236580619 ]
      },
      {
         "extensions" : {
            "KHR_lights_punctual" : {
               "light" : 1
            }
         },
         "extras" : {
            "isKeyLight" : 1
         },
         "name" : "keyLightNode",
         "rotation" : [ -0.7505326882858236, -0.3752663441429118, 0, 0.5439447166468927 ],
         "scale" : [ 0, 0, 0.7019199497892852 ],
         "translation" : [ -0.4361674687475643, 3.174835379370241, -0.5711735606707034 ]
      }
   ],
   "scene" : 0,
   "scenes" : [
      {
         "extensions" : {
            "GOOGLE_backgrounds" : {
               "color" : [ 0.00392156862745098, 0.3411764705882353, 0.6078431372549019 ]
            },
            "GOOGLE_camera_settings" : {
               "pivot" : [ 0.3044173253322234, 1.779288354397435, 0.05550189317393252 ]
            }
         },
         "extras" : {
            "GOOGLE_camera_index" : {
               "cameraIndex" : 0,
               "nodeIndex" : 4
            },
            "GOOGLE_geometry_data" : {
               "stats" : {
                  "centroid" : [ 0.2657524810417209, 1.770995479791671, 0.1307463891185818 ],
                  "radius" : 0.6949702473161239,
                  "stdev" : 0.3556671822132409
               },
               "visualCenterPoint" : [ 0.2490589567141389, 1.790065544797598, 0.1433513664410365 ]
            },
            "GOOGLE_hemi_light" : {
               "groundColor" : [ 0.00392156862745098, 0.3411764705882353, 0.6078431372549019 ]
            }
         },
         "name" : "defaultScene",
         "nodes" : [ 1, 4, 6 ]
      }
   ]
}
