{
   "accessors" : [
      {
         "bufferView" : 0,
         "byteOffset" : 0,
         "componentType" : 5123,
         "count" : 3360,
         "max" : [ 799 ],
         "min" : [ 0 ],
         "name" : "buffer-0-group-0-mesh-0-indices",
         "type" : "SCALAR"
      },
      {
         "bufferView" : 1,
         "byteOffset" : 0,
         "componentType" : 5126,
         "count" : 800,
         "max" : [ -71.32679748535156, 3.639699935913086, 3.446300029754639 ],
         "min" : [ -77.65160369873047, 1.097699999809265, -1.941799998283386 ],
         "name" : "buffer-0-group-0-mesh-0-position",
         "type" : "VEC3"
      },
      {
         "bufferView" : 1,
         "byteOffset" : 9600,
         "componentType" : 5126,
         "count" : 800,
         "max" : [ 0.9968961477279663, 0.9989593625068665, 0.9957127571105957 ],
         "min" : [ -0.9992328882217407, -0.9998367428779602, -0.984138548374176 ],
         "name" : "buffer-0-group-0-mesh-0-normal",
         "type" : "VEC3"
      },
      {
         "bufferView" : 2,
         "byteOffset" : 0,
         "componentType" : 5126,
         "count" : 800,
         "max" : [ 0.9945999979972839, -0.01449999958276749 ],
         "min" : [ 0.008600000292062759, -0.9861999750137329 ],
         "name" : "buffer-0-group-0-mesh-0-texcoord",
         "type" : "VEC2"
      }
   ],
   "asset" : {
      "extras" : {
         "GOOGLE_processor_version" : 294144208
      },
      "generator" : "Obj2GltfConverter",
      "version" : "2.0"
   },
   "bufferViews" : [
      {
         "buffer" : 0,
         "byteLength" : 6720,
         "byteOffset" : 0,
         "name" : "buffer-0-bufferview-ushort",
         "target" : 34963
      },
      {
         "buffer" : 0,
         "byteLength" : 19200,
         "byteOffset" : 6720,
         "byteStride" : 12,
         "name" : "buffer-0-bufferview-vec3",
         "target" : 34962
      },
      {
         "buffer" : 0,
         "byteLength" : 6400,
         "byteOffset" : 25920,
         "byteStride" : 8,
         "name" : "buffer-0-bufferview-vec2",
         "target" : 34962
      }
   ],
   "buffers" : [
      {
         "byteLength" : 32320,
         "name" : "buffer-0",
         "uri" : "Coral.bin"
      }
   ],
   "cameras" : [
      {
         "perspective" : {
            "yfov" : 0.7853981633974483,
            "znear" : 0.1000000014901161
         },
         "type" : "perspective"
      }
   ],
   "extensions" : {
      "KHR_lights_punctual" : {
         "lights" : [
            {
               "color" : [ 1, 0.9333333333333333, 0.8666666666666667 ],
               "intensity" : 0.25,
               "name" : "headLight",
               "type" : "directional"
            },
            {
               "color" : [ 1, 0.9333333333333333, 0.8666666666666667 ],
               "intensity" : 0.324999988079071,
               "name" : "keyLight",
               "type" : "directional"
            }
         ]
      }
   },
   "extensionsUsed" : [ "GOOGLE_backgrounds", "GOOGLE_camera_settings", "KHR_lights_punctual" ],
   "extras" : {
      "GOOGLE_initial_camera_motion" : {
         "motionPath" : "FULL_ROTATION"
      },
      "GOOGLE_lighting_rig" : {
         "disableShadows" : false
      }
   },
   "images" : [
      {
         "mimeType" : "image/jpeg",
         "name" : "Material_91-diffuse-image",
         "uri" : "48-3.jpg"
      }
   ],
   "materials" : [
      {
         "alphaMode" : "OPAQUE",
         "doubleSided" : true,
         "name" : "Material_91",
         "pbrMetallicRoughness" : {
            "baseColorFactor" : [ 1, 1, 1, 1 ],
            "baseColorTexture" : {
               "index" : 0,
               "texCoord" : 0
            },
            "metallicFactor" : 0,
            "roughnessFactor" : 0.7358395138449315
         }
      }
   ],
   "meshes" : [
      {
         "name" : "buffer-0-mesh-0",
         "primitives" : [
            {
               "attributes" : {
                  "NORMAL" : 2,
                  "POSITION" : 1,
                  "TEXCOORD_0" : 3
               },
               "indices" : 0,
               "material" : 0,
               "mode" : 4
            }
         ]
      }
   ],
   "nodes" : [
      {
         "mesh" : 0,
         "name" : "node-0"
      },
      {
         "children" : [ 2 ]
      },
      {
         "children" : [ 3 ],
         "extras" : {
            "isTransformNode" : 1
         },
         "translation" : [ -74.41836081512335, 2.329229351163267, 0.8168444161222781 ]
      },
      {
         "children" : [ 0 ],
         "translation" : [ 74.41836081512335, -2.329229351163267, -0.8168444161222781 ]
      },
      {
         "camera" : 0,
         "children" : [ 5 ],
         "rotation" : [
            -0.2708906660333284,
            -0.01905533852751568,
            -0.005363547586494424,
            0.9624065531192675
         ],
         "translation" : [ -74.67648128449488, 6.329077227046685, 7.354224278715754 ]
      },
      {
         "extensions" : {
            "KHR_lights_punctual" : {
               "light" : 0
            }
         },
         "extras" : {
            "isHeadLight" : 1
         },
         "name" : "headLightNode",
         "translation" : [ -3.775397254928854, 1.887698627464427, 1.887698627464427 ]
      },
      {
         "extensions" : {
            "KHR_lights_punctual" : {
               "light" : 1
            }
         },
         "extras" : {
            "isKeyLight" : 1
         },
         "name" : "keyLightNode",
         "rotation" : [ -0.7505326882858236, -0.3752663441429118, 0, 0.5439447166468927 ],
         "scale" : [ 0, 0, 3.813151227478143 ],
         "translation" : [ -78.17614894056713, 10.00876907888841, -3.002067974218721 ]
      }
   ],
   "samplers" : [
      {
         "name" : "Material_91-diffuse-sampler",
         "wrapS" : 10497,
         "wrapT" : 10497
      }
   ],
   "scene" : 0,
   "scenes" : [
      {
         "extensions" : {
            "GOOGLE_backgrounds" : {
               "color" : [ 0.6196078431372549, 0.615686274509804, 0.1411764705882353 ]
            },
            "GOOGLE_camera_settings" : {
               "pivot" : [ 0, 0, 0 ]
            }
         },
         "extras" : {
            "GOOGLE_camera_index" : {
               "cameraIndex" : 0,
               "nodeIndex" : 4
            },
            "GOOGLE_geometry_data" : {
               "stats" : {
                  "centroid" : [ -74.36299771308899, 2.382466623932123, 0.8110832532594213 ],
                  "radius" : 3.775397254928854,
                  "stdev" : 1.985170868373287
               },
               "visualCenterPoint" : [ -74.41836081512335, 2.329229351163267, 0.8168444161222781 ]
            },
            "GOOGLE_hemi_light" : {
               "groundColor" : [ 0.6196078431372549, 0.615686274509804, 0.1411764705882353 ]
            }
         },
         "name" : "scene-0",
         "nodes" : [ 1, 4, 6 ]
      }
   ],
   "textures" : [
      {
         "name" : "Material_91-diffuse-texture",
         "sampler" : 0,
         "source" : 0
      }
   ]
}
